# xmcd
#
# Track frame offsets:
# 150
# 13645
# 27670
# 42337
# 55311
# 71583
# 87533
# 101118
# 113725
# 126666
# 141168
# 155263
# 169195
# 182638
# 196557
# 209322
# 223767
# 239425
# 253291
# 269096
#
# Disc length: 3776 seconds
#
#
# Revision: 1
# Processed by: cddbd v1.5.2PL0 Copyright (c) Steve Scherf et al.
# Submitted via: FreeRIP 2.951 
#
DISCID=370ebe14
DTITLE=Felipe e Falcão - Grandes sucessos
DYEAR=2005
DGENRE=sertanejo
TTITLE0=É pra lá que eu vou
TTITLE1=Tem que ser agora
TTITLE2=Hoje não é nosso dia
TTITLE3=Nóis é simprão de tudo
TTITLE4=Deixa eu te amar por favor
TTITLE5=Porta do mundo
TTITLE6=O karatê
TTITLE7=Vestido de seda
TTITLE8=Vanerão da mulher feia
TTITLE9=Tô indo embora
TTITLE10=Meu táxi é um cacete
TTITLE11=O papa tudo
TTITLE12=Mata de saudade
TTITLE13=Eu bebo sim
TTITLE14=Preciso te encontrar
TTITLE15=Hoje tem show de bola
TTITLE16=Meu reino encantado
TTITLE17=O saco ficou pra fora
TTITLE18=Nem tchum
TTITLE19=Paixão pra mais de mês
EXTD=
EXTT0=
EXTT1=
EXTT2=
EXTT3=
EXTT4=
EXTT5=
EXTT6=
EXTT7=
EXTT8=
EXTT9=
EXTT10=
EXTT11=
EXTT12=
EXTT13=
EXTT14=
EXTT15=
EXTT16=
EXTT17=
EXTT18=
EXTT19=
PLAYORDER=
